<svg xmlns="http://www.w3.org/2000/svg" viewBox="0 0 1600 900" role="img" aria-labelledby="title">
    <title id="title">Exterior photo placeholder</title>
    <defs>
        <radialGradient id="surface" cx="72%" cy="40%" r="70%">
            <stop offset="0" stop-color="#242428"/>
            <stop offset=".38" stop-color="#111113"/>
            <stop offset="1" stop-color="#0a0a0b"/>
        </radialGradient>
        <linearGradient id="line" x1="0" y1="0" x2="1" y2=".2">
            <stop offset="0" stop-color="#f3f3f1" stop-opacity="0"/>
            <stop offset=".35" stop-color="#f3f3f1" stop-opacity=".82"/>
            <stop offset=".8" stop-color="#f3f3f1" stop-opacity=".2"/>
            <stop offset="1" stop-color="#f3f3f1" stop-opacity="0"/>
        </linearGradient>
        <filter id="glow" x="-20%" y="-100%" width="140%" height="300%">
            <feGaussianBlur stdDeviation="10"/>
        </filter>
    </defs>
    <rect width="1600" height="900" fill="url(#surface)"/>
    <path d="M-80 650C250 530 410 520 630 505c130-9 190-20 292-102 126-101 229-116 478-91 152 15 246 32 315 68" fill="none" stroke="url(#line)" stroke-width="5" filter="url(#glow)" opacity=".6"/>
    <path d="M-80 650C250 530 410 520 630 505c130-9 190-20 292-102 126-101 229-116 478-91 152 15 246 32 315 68" fill="none" stroke="url(#line)" stroke-width="2"/>
    <path d="M160 686c301-78 620-72 950-32 173 21 344 16 553-31" fill="none" stroke="#f3f3f1" stroke-opacity=".14" stroke-width="2"/>
    <circle cx="1410" cy="145" r="3" fill="#ce0713"/>
</svg>
